<svg width="204" height="269" fill="none" xmlns="http://www.w3.org/2000/svg"><path d="M175.778 191.691c-10.838-3.728-18.502-14.754-21.057-20.012l-.031.011c-9.837 3.493-24.041 8.537-7.472 18.454 11.245 6.732 24.377 5.662 28.85 2.959.615-.372.39-1.178-.29-1.412Z" fill="#4BE263"/><path d="M85.233 87.399c-13.507 17.537-21.023 40.183-28.787 78.439a6.001 6.001 0 0 0 2.44 6.096l.07.049c15.374 10.805 25.638 18.019 74.571 34.14 5.236 1.725 10.97-.734 13.257-5.75 12.071-26.467 18.011-45.079 23.89-72.969 1.282-6.086-1.417-12.326-6.749-15.527-25.249-15.162-42.487-22.127-72.353-26.932-2.406-.386-4.852.524-6.339 2.454Z" fill="#4BE263"/><path d="m45.67 154.711 31.258-79.542a9 9 0 0 1 11.584-5.117l7.326 2.795a1 1 0 0 0 1.357-.935V60.883c0-4.95-.855-9.864-2.528-14.524L83.002 13.853a1 1 0 0 1 .536-1.252L106.85 2.264c.889-.394 1.761.584 1.267 1.422l-3.18 5.392c-.151.257-.18.569-.078.85L116.97 43.26a44.984 44.984 0 0 1 2.625 12.68l1.572 26.27c.024.388.27.728.631.87l22.861 9.028c.343.136.733.071 1.015-.167l25.555-21.671a8.001 8.001 0 0 0 2.483-8.416l-7.748-25.632a1 1 0 0 1 .489-1.172l20.301-10.774c.831-.44 1.756.406 1.39 1.273l-2.747 6.509a.998.998 0 0 0-.004.768l11.011 26.852c3.977 9.7.557 20.859-8.172 26.665L167.3 100.264a1 1 0 0 0 .178 1.759l2.484 1.01c5.256 2.136 8.033 7.912 6.331 13.324-9.834 31.275-27.342 80.728-37.079 85.765" stroke="#272727" stroke-width="4" stroke-linecap="round"/><path d="M138.213 195.634v60.257c0 .384.219.733.563.904 4.259 2.111 11.432 6.376 11.963 9.432.079.452-.341.773-.8.773h-4.964a.982.982 0 0 1-.483-.125c-3.075-1.718-8.999-5.304-9.78-6.862M103.197 267c1.852-2.925 6.533-8.388 11.344-8.551.613-.021 1.162-.485 1.162-1.098v-61.03a.999.999 0 0 0-.641-.933l-55.998-21.563a.977.977 0 0 0-.76.017c-9.393 4.216-26.987 13.311-28.618 20.194a.635.635 0 0 0-.018.207c.114 1.217 2.235 3.833 13.502 5.384" stroke="#272727" stroke-width="4" stroke-linecap="round"/><path d="M43.4 194.858c-.367-2.62 1.865-4.868 4.488-4.52l13.077 1.735a4 4 0 0 1 3.439 3.436l3.528 26.446c.365 2.74-2.092 5.016-4.796 4.442l-13.043-2.77a4 4 0 0 1-3.13-3.357L43.4 194.858Z" fill="#4BE263"/><path d="M45.67 154.711c-16.674 7.652-48.622 26.65-43.02 41.422 7.004 18.465 42.02 23.456 53.025 21.46 1.501-.272 4.002-4.991-9.004-4.492" stroke="#272727" stroke-width="4" stroke-linecap="round"/><path d="M42.67 202.122c5.502 4.99 17.507 2.994 14.006 7.985" stroke="#272727" stroke-width="4" stroke-linecap="round"/><path d="M46.17 209.108c1.38.689 4.503.999 8.005.999 5.002 0 5.502 3.992 2 4.99M79.186 267h84.039M74 159v3.992M94 164v2.994m-17 3.488c.834 1.165 5.5 3.682 9 2.518 2-.665 2.833-2.019 3-2.518" stroke="#272727" stroke-width="4" stroke-linecap="round"/></svg>