<svg width="275" height="267" fill="none" xmlns="http://www.w3.org/2000/svg"><path d="M47.757 196.848c10.508-11.126 12.496-29.032 12.144-36.82l.042-.007c13.606-2.144 33.25-5.241 20.286 16.692-9.013 15.248-25.477 22.253-32.075 21.563-.715-.075-.891-.905-.398-1.428Z" fill="#FFDD2A"/><path d="M192.206 59.766c2.564 24.683 1.456 83.739-6.436 111.188-2.231 7.76-8.029 13.819-16.02 14.976-13.997 2.027-45.087 2.144-113.714-8.954-4.818-.779-8.617-4.658-8.982-9.524-2.408-32.126 1.068-82.053 10.782-115.12 1.59-5.413 6.385-9.17 12-9.715 43.015-4.174 80.906-.866 108.876 4.1 7.23 1.283 12.736 5.745 13.494 13.049Z" fill="#FFDD2A"/><path d="M154.72 84.5c10.613 19.069 25.216 11.075 24.307-2.53a.964.964 0 0 0-1.055-.885l-22.478 1.96a.983.983 0 0 0-.774 1.456Zm37.406 180.499H50.179M256.382 66.39c-.194-1.558-1.986-4.557-7.594-4.09-7.009.584-23.95 2.921-30.375 23.95-6.426 21.03-7.594 23.95-19.277 22.782" stroke="#272727" stroke-width="4" stroke-linecap="round"/><path d="M247.036 66.389c6.231-.584 19.083-1.012 21.613 0 2.921 1.169 3.505 4.09 2.921 5.842" stroke="#272727" stroke-width="4" stroke-linecap="round"/><path d="M251.709 70.479c7.01-1.168 21.029-1.986 21.029 4.089 0 .973-.934 2.92-4.673 2.92m-70.097 44.398 4.288-77.187a7 7 0 0 0-6.541-7.374L76.428 29.68a11 11 0 0 0-11.636 9.762l-5.376 48.382c-.256 2.308-2.422 3.926-4.635 3.22-11.768-3.746-26.872-15.077-19.53-38.861 1.174-3.809 3.343-7.274 6.39-9.843 3.575-3.013 6.933-4.81 10.29-6.905 8.204-5.121 16.357-13.44-3.504-8.766" stroke="#272727" stroke-width="4" stroke-linecap="round"/><path d="M60.11 26.084c5.062-3.505 14.253-11.099 10.514-13.435-3.738-2.337-10.904 3.31-14.02 6.425" stroke="#272727" stroke-width="4" stroke-linecap="round"/><path d="M70.624 12.064c1.168-.779 3.038-2.687 1.168-4.089-2.336-1.752-5.257-2.336-16.94 5.258" stroke="#272727" stroke-width="4" stroke-linecap="round"/><path d="M65.367 7.39c.779-1.557 1.519-4.672-1.753-4.672-4.089 0-32.712 5.841-49.068 30.96-13.085 20.094-10.125 44.2-7.01 53.74 4.868 12.657 23.366 37.97 58.415 37.97" stroke="#272727" stroke-width="4" stroke-linecap="round"/><path d="m54.852 124.804 1.359 33.053a10 10 0 0 0 9.991 9.59h16.133a2 2 0 0 1 1.98 2.284l-12.272 85.347a4.999 4.999 0 0 1-1.538 2.944l-7.475 6.977m36.801 0 13.754-92.837a2 2 0 0 1 2.078-1.704l19.712.986a1.998 1.998 0 0 1 1.899 1.935l2.863 91.62m36.802.001-6.648-5.318a5.996 5.996 0 0 1-2.245-4.396l-3.849-79.729a2 2 0 0 1 2.154-2.09l13.601 1.067c7.697.603 14.429-5.137 15.05-12.832l1.797-22.293c16.356 1.753 24.184-1.635 29.792-8.178 7.01-8.178 9.93-48.485 25.118-48.485 15.188 0 18.399-1.948 16.356-4.674-1.752-2.338-11.683-3.505-16.356-2.336" stroke="#272727" stroke-width="4" stroke-linecap="round"/><path d="M173.113 63v4.089l5.65-.726m-23.801-3.349 1.764 3.688-5.863.49" stroke="#272727" stroke-width="4" stroke-linecap="round" stroke-linejoin="round"/></svg>