<svg width="291" height="185" fill="none" xmlns="http://www.w3.org/2000/svg"><path fill-rule="evenodd" clip-rule="evenodd" d="M187.5 166c45.563 0 82.5-37.16 82.5-83S233.063 0 187.5 0 105 37.16 105 83c0 23.938 10.073 45.509 26.186 60.657-1.106 5.339-4.301 12.236-11.419 16.424-1.845 1.086-1.607 3.943.533 3.879 7.294-.217 17.227-2.169 27.649-8.102C159.692 162.324 173.169 166 187.5 166Z" fill="#4BE363"/><path d="M247.927 86.58c-.447 10.243-8.673 26.037-38 7.255" stroke="#1F1F1F" stroke-width="4" stroke-linecap="round"/><path d="M126.082 159.006a87.993 87.993 0 0 1-26.27-79.29 88 88 0 0 1 164.12-26.48C270.852 66.069 271.5 68.5 274.5 86" stroke="#1F1F1F" stroke-width="4" stroke-linecap="round"/><path d="M41.474 110a2 2 0 1 0 0 4v-4Zm73.679 38.992a2 2 0 0 0-.357-3.984l.357 3.984ZM288.474 184.5a2 2 0 1 0 0-4v4ZM75.05 114.922l2-.052-2 .052ZM41.474 114h30.577v-4H41.474v4Zm31.577.974.786 30.252 3.998-.104-.785-30.252-4 .104Zm8.409 37.042 33.693-3.024-.357-3.984-33.694 3.024.358 3.984ZM41.474 114c.439 0 1.5.347 2.628 1.53 1.067 1.12 2.05 2.86 2.393 5.253l3.96-.566c-.459-3.207-1.809-5.717-3.458-7.447-1.59-1.667-3.628-2.77-5.523-2.77v4Zm5.02 6.783c.284 1.982.409 8.709.421 17.55.012 8.745-.084 19.339-.207 28.879l4 .052c.123-9.548.22-20.164.207-28.936-.012-8.676-.127-15.774-.46-18.111l-3.96.566ZM63.743 184.5h224.732v-4H63.742v4Zm-17.034-17.288c-.124 9.497 7.526 17.288 17.034 17.288v-4c-7.268 0-13.13-5.958-13.035-13.236l-4-.052Zm27.129-21.986a7 7 0 0 0 7.623 6.79l-.357-3.984a3 3 0 0 1-3.268-2.91l-3.998.104ZM72.05 114a1 1 0 0 1 1 .974l3.999-.104A5 5 0 0 0 72.05 110v4Z" fill="#1F1F1F"/><path d="m2.486 149.71-1.688-1.073a2 2 0 0 0 3.31 2.242l-1.622-1.169Zm1.687 1.074 15.344-24.124-3.375-2.147L.798 148.637l3.375 2.147Zm16.742-24.42 26.366 17.581 2.22-3.328-26.366-17.581-2.22 3.328ZM4.11 150.879c.256-.355 1.158-1.014 2.777-1.237 1.532-.211 3.519.008 5.66 1.13l1.856-3.544c-2.87-1.503-5.695-1.875-8.063-1.548-2.282.315-4.368 1.324-5.476 2.861l3.246 2.338Zm8.437-.107c4.919 2.576 21.337 12.405 35.793 22.374l2.27-3.293c-14.543-10.03-31.103-19.952-36.207-22.625l-1.856 3.544Zm6.97-24.112a1 1 0 0 1 1.4-.296l2.219-3.328a5 5 0 0 0-6.993 1.477l3.375 2.147Z" fill="#1F1F1F"/><path d="M39.974 182.5h30m199.5-.002h6.03c6.715 0 11.522-6.488 9.566-12.912l-12.842-42.193c-.445-1.464-.019-3.057.964-4.23 2.475-2.956 6.843-9.297 7.308-17.663.5-9-3.017-10.052-3.123-8.5-.377 5.5-4.413 16-3.877 14.5 4.703-13.168 6.309-25.893 1.075-25.28-.686.081-1.151.686-1.293 1.362-1.793 8.554-6.991 25.452-18.352 35.458-1.434 1.262-2.213 3.152-1.871 5.032L258.5 158m-75.526-5c2.667-1.167 8.5-2.4 10.5 2" stroke="#1F1F1F" stroke-width="4" stroke-linecap="round"/><path d="M178.026 108c-6.5-10-7.321-15.852-6.968-19.185.656-1.334 2.968-2 6.968 6l16.32 22.18a14.159 14.159 0 0 0 13.732 5.575v0a4.845 4.845 0 0 1 5.064 2.486l23.735 44.185c3.221 5.996-1.122 13.259-7.928 13.259H200.5" stroke="#1F1F1F" stroke-width="4" stroke-linecap="round"/><path d="M171 109.5c-7-10.5-6-21-5.34-21.172.854-1.216 3.62-.849 6.34 7.672" stroke="#1F1F1F" stroke-width="4" stroke-linecap="round"/><path d="M172 120c-13.5-15.5-10.771-24.814-10.149-25.829C162.5 93 164.262 90.614 166 98m84.5 60c5.5-.5 7.526-2.384 6.514-8.239M234.974 63.5l2 5m-28 0 2 5" stroke="#1F1F1F" stroke-width="4" stroke-linecap="round"/><path d="m194 155.5-14.133-27.779c-.214-.42-.69-.63-1.154-.546-5.21.945-14.453-1.455-15.213-18.175" stroke="#1F1F1F" stroke-width="4" stroke-linecap="round"/></svg>