<svg width="306" height="40" fill="none" xmlns="http://www.w3.org/2000/svg"><path d="M40.374 0h1.223c.816 7.723 1.32 12.458 1.515 14.204a1103.77 1103.77 0 0 0 1.515 13.33c.427 3.144.99 7.238 1.69 12.283l-2.739-.175-2.738.175c-.35-3.88-.68-7.587-.99-11.118a299.274 299.274 0 0 0-.99-10.478c-.35-3.454-.68-6.268-.991-8.441-2.37 4.269-4.428 7.994-6.176 11.176-2.02 3.726-3.709 6.947-5.068 9.664a227.948 227.948 0 0 0-4.02 8.557h-.641l-3.204-6.578a277.01 277.01 0 0 0-3.729-7.51 683.453 683.453 0 0 0-4.02-7.742c-1.36-2.522-2.7-5.045-4.02-7.567a1840.84 1840.84 0 0 0-1.922 16.823c-.622 5.666-.933 10.07-.933 13.214l-2.039-.175L0 39.817c.816-5.045 1.884-12.205 3.204-21.48C4.524 9.023 5.321 2.911 5.593 0h1.515c2.02 3.959 3.67 7.2 4.952 9.722a499.501 499.501 0 0 0 5.534 10.303c2.33 4.23 4.331 7.723 6.001 10.478L40.374 0Zm42.743 0L69.892 12.69l-4.952 5.007a2772.36 2772.36 0 0 0 14.157 16.008l4.72 5.821v.291l-3.205-.175-3.262.175a59.209 59.209 0 0 0-1.981-2.678 35.953 35.953 0 0 0-2.04-2.62l-12.7-14.843c-.194-.155-.447-.252-.757-.291-.156.039-.233.077-.233.116v20.316l-2.564-.175-2.563.175V0l2.563.175L59.64 0v17.988c.038.155.213.194.524.116.35-.078.68-.233.99-.465.311-.272.952-.874 1.923-1.805.35-.35.718-.699 1.107-1.048L78.515 0l2.33.175L83.117 0Z" fill="#007535"/><path d="M137.832.008c-5.788 6.739-14.68 9.195-14.68 9.195a90.882 90.882 0 0 1 .888 16.276s11.873-11.91 13.216-13.244c.114-4.412.546-11.09.546-11.09.046-.561.053-1.145.053-1.145" fill="#E3E3E2"/><path d="M137.247 12.243c-1.351 1.334-11.472 11.416-13.202 13.19a115.448 115.448 0 0 1-1.297 14.403h15.174c0-.523-.061-5.95-.061-5.95 0-.47-.159-3.601-.159-3.601-.281-3.192-.372-11.91-.471-15.51V12.22" fill="#E3131B"/><path d="M105.669 14.502 91.892 28.238c-.046.796-.084 1.516-.13 2.031 0 0-.159 3.139-.159 3.601 0 0-.06 5.435-.06 5.959h15.173a115.156 115.156 0 0 1-1.039-25.328" fill="#E3E3E2"/><path d="M105.668 14.502c.144-1.782.341-3.556.622-5.307 0 0-8.884-2.448-14.68-9.195 0 0 0 .591.052 1.152 0 0 .653 10.067.577 13.645-.076 3.033-.152 9.522-.341 13.471l13.77-13.766Z" fill="#007535"/><path d="M160.013 10.133a464.573 464.573 0 0 0-6.717 15.881c-2.016 5.123-3.674 9.649-4.973 13.576l-1.897-.154-1.846.154c.615-1.161 2.034-4.218 4.256-9.17a1391.61 1391.61 0 0 0 6.46-14.806c2.529-5.874 4.033-9.562 4.512-11.065h2.41a788.759 788.759 0 0 0 3.332 8.094 1556.2 1556.2 0 0 0 6.666 15.881c2.563 6.08 4.187 9.768 4.871 11.066l-2.461-.154-2.513.154-11.639-29.457h-.461Zm25.532 22.797c2.222-2.39 4.649-5.208 7.281-8.453a198.308 198.308 0 0 0 7.178-9.375h2.051V39.59l-2.051-.154-2.051.154V21.762c-2.29 2.562-3.965 4.474-5.025 5.738a196.273 196.273 0 0 0-4.973 6.096c-1.743 2.186-3.23 4.184-4.461 5.994h-2.051V15.102c.171.034.547.069 1.128.103.581.034.889.05.923.05h.974c.479-.067.838-.119 1.077-.153V32.93Zm39.411-11.885c0 1.434-.478 2.63-1.436 3.586-.957.956-2.204 1.554-3.742 1.793 1.914.24 3.452.82 4.614 1.742 1.402 1.127 2.102 2.68 2.102 4.662 0 2.288-1.094 4.098-3.281 5.43-1.914 1.161-4.256 1.742-7.024 1.742-3.555 0-6.239-.547-8.05-1.64l.615-1.844c.205-.649.359-1.28.462-1.895h.41a7.808 7.808 0 0 0 2.512 2.766c1.094.683 2.444 1.025 4.051 1.025 1.674 0 3.042-.495 4.101-1.486 1.06-.99 1.59-2.288 1.59-3.893 0-1.674-.53-2.989-1.59-3.945-1.025-.99-2.427-1.486-4.204-1.486l-3.538.103v-2.203l3.538.102c1.333 0 2.393-.427 3.179-1.28.786-.854 1.179-1.947 1.179-3.28 0-1.331-.427-2.441-1.282-3.33-.854-.887-1.965-1.331-3.332-1.331-1.436 0-2.615.341-3.538 1.024-.786.581-1.367 1.367-1.743 2.357h-.462a21.688 21.688 0 0 0-1.23-3.637c.581-.376 1.367-.666 2.358-.871 1.367-.308 3.059-.461 5.076-.461 2.427 0 4.427.495 5.999 1.486 1.777 1.127 2.666 2.715 2.666 4.764Zm11.861 11.885c2.222-2.39 4.649-5.208 7.281-8.453a198.308 198.308 0 0 0 7.178-9.375h2.051V39.59l-2.051-.154-2.051.154V21.762c-2.29 2.562-3.965 4.474-5.025 5.738a196.273 196.273 0 0 0-4.973 6.096c-1.743 2.186-3.23 4.184-4.461 5.994h-2.051V15.102c.171.034.547.069 1.128.103.581.034.889.05.923.05h.974c.479-.067.838-.119 1.077-.153V32.93Zm34.694-7.274c1.367 0 2.598-.017 3.692-.052a49.703 49.703 0 0 0 2.512-.205V15.102l2.051.154 2.051-.154V39.59l-2.051-.154-2.051.154V27.705l-6.204-.154-6.204.154V39.59l-2.051-.154-2.051.154V15.102l2.051.154 2.051-.154V25.4c.923.069 2.051.137 3.384.205 1.367.035 2.307.052 2.82.052Zm22.286-8.197V39.59l-2.051-.154-2.051.154V15.256H306l-.103 1.383.103 1.383c-.991-.17-2.444-.307-4.358-.41-1.88-.102-4.495-.153-7.845-.153Z" fill="#E3131B"/></svg>