<svg width="268" height="202" fill="none" xmlns="http://www.w3.org/2000/svg"><path fill-rule="evenodd" clip-rule="evenodd" d="M82.045 174.788c45.312 6.284 87.117-25.202 93.374-70.327 6.256-45.124-25.404-86.798-70.717-93.083C59.39 5.094 17.585 36.58 11.329 81.705c-3.27 23.575 3.812 46.208 17.782 63.346-1.826 5.09-5.93 11.413-13.542 14.556-1.98.818-2.127 3.687.007 3.917 7.278.785 17.397.228 28.54-4.16 10.792 7.976 23.686 13.448 37.93 15.424Z" fill="#D0FF4C"/><path d="M240.231 40.553c8.391-3.224 24.915-10.575 23.882-14.186-1.033-3.61-9.897.215-14.2 2.58" stroke="#272727" stroke-width="4" stroke-linecap="round"/><path d="M247.594 24.297c5.112-2.351 15.335-5.878 14.696.588m-16.537 157.603H266m-151.851-11.981c4.167 7.68 10.001 23.041 0 23.041" stroke="#272727" stroke-width="4" stroke-linecap="round"/><path d="M111.324 177.88c2.094 7.392 3.811 21.45-2.541 22.12-1.906 0-3.684-1.341-3.176-9.384v0a8.182 8.182 0 0 0-8.181-8.182H68.133" stroke="#272727" stroke-width="4" stroke-linecap="round"/><path d="M57.09 154.839h43.365c10.497 0 19.532 7.416 21.578 17.712l2.239 11.265c0 2.52-3.199 3.15-4.479 1.26m-53.5-48.67v17.511m-40.494 28.571h48.776" stroke="#272727" stroke-width="4" stroke-linecap="round"/><path d="M74.56 182.489H45.162c-6.107 0-11.045-4.975-11-11.081l.561-76.24c0-34.339 28.808-91.481 97.018-76.095 25.058 7.46 70.162 39.007 50.116 105.509" stroke="#272727" stroke-width="4" stroke-linecap="round"/><path d="m127.642 123.576 28.159-17.103c4.655-2.827 10.717-1.41 13.635 3.189l31.566 49.747a3 3 0 0 0 2.86 1.375l5.086-.559c1.069-.118 1.545 1.305.62 1.854l-28.722 17.046a3.001 3.001 0 0 1-4.1-1.03l-19.329-32.039a5 5 0 0 0-7.273-1.424l-29.553 22.063" stroke="#272727" stroke-width="4" stroke-linecap="round"/><path d="m198.838 154.821 49.723 2.271a14.998 14.998 0 0 0 11.316-4.403l1.991-2c.695-.698 1.874-.078 1.692.89l-4.733 25.201a7 7 0 0 1-6.879 5.708H125.192m56.6-118.894h24.234c5.523 0 10-4.477 10-10V36.79a6 6 0 0 0-2.012-4.482l-6.465-5.752c-.727-.647-.195-1.846.772-1.742l10.437 1.128c2.835.306 5.694.309 8.529.008v0a40.054 40.054 0 0 0 14.744-4.554l2.615-1.406c4.24-2.565 12.974-6.156 13.991 0m-71.784 74.94 40.673-1.358c8.624-.288 15.466-7.362 15.466-15.99v-37.03" stroke="#272727" stroke-width="4" stroke-linecap="round"/><path fill-rule="evenodd" clip-rule="evenodd" d="m126.26 55.094 15.124-8.708c.753-.434 1.708-.338 2.29.308 3.264 3.622 6.934 10.853-.105 15.553-6.844 4.57-13.727.053-17.797-4.236-.843-.889-.573-2.305.488-2.917Zm6.959 3.595c1.629-1.628 4.745-3.434 8.464-1.962.537.212.711.87.36 1.328-2.129 2.77-5.183 3.795-8.611 1.97a.835.835 0 0 1-.213-1.336Z" fill="#272727"/><path d="m117.83 44.24 1.841 2.765m13.804-12.904 2.761 3.687" stroke="#272727" stroke-width="4" stroke-linecap="round"/></svg>