<svg width="204" height="269" viewBox="0 0 204 269" fill="none" xmlns="http://www.w3.org/2000/svg">
<path d="M175.778 191.691C164.94 187.963 157.276 176.937 154.721 171.679L154.69 171.69C144.853 175.183 130.649 180.227 147.218 190.144C158.463 196.876 171.595 195.806 176.068 193.103C176.683 192.731 176.458 191.925 175.778 191.691Z" fill="#4BE263"/>
<path d="M85.2334 87.399C71.7265 104.936 64.2098 127.582 56.4461 165.838C55.9725 168.172 56.9381 170.565 58.8866 171.934L58.9568 171.983C74.3304 182.788 84.5935 190.002 133.527 206.123C138.763 207.848 144.497 205.389 146.784 200.373C158.855 173.906 164.795 155.294 170.674 127.404C171.956 121.318 169.257 115.078 163.925 111.877C138.676 96.7152 121.438 89.7496 91.5716 84.9453C89.1665 84.5585 86.7197 85.4691 85.2334 87.399Z" fill="#4BE263"/>
<path d="M45.6707 154.711L76.9277 75.1692C78.7328 70.5757 83.9005 68.2929 88.5119 70.0519L95.838 72.8466C96.4926 73.0963 97.1945 72.6128 97.1945 71.9122V60.8835C97.1945 55.9327 96.3395 51.0191 94.6672 46.3593L83.0018 13.8526C82.8248 13.3593 83.0586 12.8131 83.5377 12.6006L106.85 2.2639C107.739 1.86966 108.611 2.84815 108.117 3.68597L104.937 9.07785C104.786 9.33507 104.757 9.64661 104.859 9.92726L116.97 43.26C118.452 47.3379 119.336 51.6087 119.595 55.9397L121.167 82.2099C121.191 82.598 121.437 82.9375 121.798 83.0803L144.659 92.1083C145.002 92.2438 145.392 92.1794 145.674 91.9409L171.229 70.2699C173.658 68.2093 174.634 64.9032 173.712 61.8535L165.964 36.2225C165.826 35.7651 166.03 35.2738 166.453 35.0498L186.754 24.2764C187.585 23.8354 188.51 24.6818 188.144 25.5486L185.397 32.0576C185.293 32.3029 185.292 32.5794 185.393 32.8258L196.404 59.6777C200.381 69.3776 196.961 80.5367 188.232 86.3426L167.3 100.264C166.632 100.709 166.734 101.721 167.478 102.023L169.962 103.033C175.218 105.169 177.995 110.945 176.293 116.357C166.459 147.632 148.951 197.085 139.214 202.122" stroke="#272727" stroke-width="4" stroke-linecap="round"/>
<path d="M138.213 195.634V255.891C138.213 256.275 138.432 256.624 138.776 256.795C143.035 258.906 150.208 263.171 150.739 266.227C150.818 266.679 150.398 267 149.939 267H144.975C144.805 267 144.64 266.958 144.492 266.875C141.417 265.157 135.493 261.571 134.712 260.013" stroke="#272727" stroke-width="4" stroke-linecap="round"/>
<path d="M103.197 267C105.049 264.075 109.73 258.612 114.541 258.449C115.154 258.428 115.703 257.964 115.703 257.351V196.321C115.703 195.907 115.448 195.536 115.062 195.388L59.0639 173.825C58.816 173.729 58.5466 173.733 58.3043 173.842C48.9107 178.058 31.3173 187.153 29.6861 194.036C29.6699 194.105 29.6617 194.173 29.6683 194.243C29.7824 195.46 31.9025 198.076 43.1695 199.627" stroke="#272727" stroke-width="4" stroke-linecap="round"/>
<path d="M43.4001 194.858C43.0328 192.238 45.2648 189.99 47.8876 190.338L60.9652 192.073C62.7558 192.311 64.165 193.719 64.4039 195.509L67.9317 221.955C68.2972 224.695 65.8399 226.971 63.1361 226.397L50.0929 223.627C48.4472 223.278 47.196 221.936 46.9624 220.27L43.4001 194.858Z" fill="#4BE263"/>
<path d="M45.6707 154.711C28.9963 162.363 -2.95179 181.361 2.6508 196.133C9.65403 214.598 44.6702 219.589 55.6753 217.593C57.176 217.321 59.6772 212.602 46.6711 213.101" stroke="#272727" stroke-width="4" stroke-linecap="round"/>
<path d="M42.6693 202.122C48.1719 207.112 60.1774 205.116 56.6758 210.107" stroke="#272727" stroke-width="4" stroke-linecap="round"/>
<path d="M46.1709 209.108C47.5503 209.797 50.673 210.107 54.1746 210.107C59.1769 210.107 59.6771 214.099 56.1755 215.097" stroke="#272727" stroke-width="4" stroke-linecap="round"/>
<path d="M79.1862 267H163.225" stroke="#272727" stroke-width="4" stroke-linecap="round"/>
<path d="M74 159V162.992" stroke="#272727" stroke-width="4" stroke-linecap="round"/>
<path d="M94 164V166.994" stroke="#272727" stroke-width="4" stroke-linecap="round"/>
<path d="M77 170.482C77.8337 171.647 82.5 174.164 86 173C88 172.335 88.8333 170.981 89 170.482" stroke="#272727" stroke-width="4" stroke-linecap="round"/>
</svg>
