<svg width="291" height="185" viewBox="0 0 291 185" fill="none" xmlns="http://www.w3.org/2000/svg">
<path fill-rule="evenodd" clip-rule="evenodd" d="M187.5 166C233.063 166 270 128.84 270 83C270 37.1604 233.063 0 187.5 0C141.937 0 105 37.1604 105 83C105 106.938 115.073 128.509 131.186 143.657C130.08 148.996 126.885 155.893 119.767 160.081C117.922 161.167 118.16 164.024 120.3 163.96C127.594 163.743 137.527 161.791 147.949 155.858C159.692 162.324 173.169 166 187.5 166Z" fill="#4BE363"/>
<path d="M247.927 86.5791C247.48 96.8233 239.254 112.617 209.927 93.8354" stroke="#1F1F1F" stroke-width="4" stroke-linecap="round"/>
<path d="M126.082 159.006C115.477 149 107.525 136.516 102.94 122.676C98.3544 108.836 97.2796 94.0737 99.8119 79.7156C102.344 65.3574 108.404 51.8533 117.448 40.417C126.491 28.9807 138.234 19.9705 151.621 14.1961C165.009 8.42168 179.622 6.06404 194.146 7.33504C208.67 8.60604 222.651 13.4658 234.832 21.4777C247.013 29.4896 257.013 40.4025 263.932 53.2357C270.852 66.0689 271.5 68.5 274.5 86" stroke="#1F1F1F" stroke-width="4" stroke-linecap="round"/>
<path d="M41.4744 110C40.3698 110 39.4744 110.895 39.4744 112C39.4744 113.105 40.3698 114 41.4744 114V110ZM115.153 148.992C116.253 148.893 117.065 147.921 116.966 146.821C116.868 145.721 115.896 144.909 114.796 145.008L115.153 148.992ZM288.474 184.5C289.579 184.5 290.474 183.605 290.474 182.5C290.474 181.395 289.579 180.5 288.474 180.5V184.5ZM75.0503 114.922L77.0496 114.87L75.0503 114.922ZM41.4744 114H72.0513V110H41.4744V114ZM73.0509 114.974L73.8367 145.226L77.8353 145.122L77.0496 114.87L73.0509 114.974ZM81.46 152.016L115.153 148.992L114.796 145.008L81.1025 148.032L81.46 152.016ZM41.4744 114C41.9129 114 42.9744 114.347 44.1017 115.53C45.1691 116.65 46.1526 118.39 46.4945 120.783L50.4543 120.217C49.9961 117.01 48.6463 114.5 46.997 112.77C45.4077 111.103 43.3691 110 41.4744 110V114ZM46.4945 120.783C46.7776 122.765 46.9029 129.492 46.9151 138.333C46.9271 147.078 46.8313 157.672 46.7075 167.212L50.7072 167.264C50.831 157.716 50.9271 147.1 50.9151 138.328C50.9031 129.652 50.7881 122.554 50.4543 120.217L46.4945 120.783ZM63.7422 184.5H288.474V180.5H63.7422V184.5ZM46.7075 167.212C46.5843 176.709 54.2341 184.5 63.7422 184.5V180.5C56.474 180.5 50.6128 174.542 50.7072 167.264L46.7075 167.212ZM73.8367 145.226C73.9416 149.265 77.4353 152.377 81.46 152.016L81.1025 148.032C79.3776 148.187 77.8803 146.853 77.8353 145.122L73.8367 145.226ZM72.0513 114C72.5934 114 73.0369 114.432 73.0509 114.974L77.0496 114.87C76.9792 112.16 74.7621 110 72.0513 110V114Z" fill="#1F1F1F"/>
<path d="M2.48591 149.71L0.798325 148.637C0.217631 149.55 0.468359 150.759 1.36418 151.366C2.26 151.973 3.47602 151.757 4.10857 150.879L2.48591 149.71ZM4.17349 150.784L19.5169 126.66L16.1418 124.513L0.798325 148.637L4.17349 150.784ZM20.9155 126.364L47.2812 143.945L49.5003 140.617L23.1346 123.036L20.9155 126.364ZM4.10857 150.879C4.36496 150.524 5.26728 149.865 6.88576 149.642C8.41829 149.431 10.405 149.65 12.5464 150.772L14.4023 147.228C11.5326 145.725 8.70707 145.353 6.33917 145.68C4.05723 145.995 1.9709 147.004 0.86325 148.541L4.10857 150.879ZM12.5464 150.772C17.465 153.348 33.8828 163.177 48.3391 173.146L50.6099 169.853C36.0659 159.823 19.5059 149.901 14.4023 147.228L12.5464 150.772ZM19.5169 126.66C19.8179 126.186 20.449 126.053 20.9155 126.364L23.1346 123.036C20.8019 121.481 17.6464 122.147 16.1418 124.513L19.5169 126.66Z" fill="#1F1F1F"/>
<path d="M39.9744 182.5H69.9744" stroke="#1F1F1F" stroke-width="4" stroke-linecap="round"/>
<path d="M269.474 182.498H275.504C282.219 182.498 287.026 176.01 285.07 169.586L272.228 127.393C271.783 125.929 272.209 124.336 273.192 123.163C275.667 120.207 280.035 113.866 280.5 105.5C281 96.5 277.483 95.4482 277.377 97C277 102.5 272.964 113 273.5 111.5C278.203 98.3321 279.809 85.6066 274.575 86.2206C273.889 86.301 273.424 86.9065 273.282 87.5825C271.489 96.1364 266.291 113.034 254.93 123.04C253.496 124.302 252.717 126.192 253.059 128.072L258.5 158" stroke="#1F1F1F" stroke-width="4" stroke-linecap="round"/>
<path d="M182.974 153C185.641 151.833 191.474 150.6 193.474 155" stroke="#1F1F1F" stroke-width="4" stroke-linecap="round"/>
<path d="M178.026 108C171.526 98 170.705 92.1481 171.058 88.8148C171.714 87.4815 174.026 86.8148 178.026 94.8148L194.346 116.995C197.508 121.292 202.816 123.447 208.078 122.57V122.57C210.124 122.229 212.16 123.229 213.142 125.056L236.877 169.241C240.098 175.237 235.755 182.5 228.949 182.5H200.5" stroke="#1F1F1F" stroke-width="4" stroke-linecap="round"/>
<path d="M171 109.5C164 98.9999 165 88.4999 165.66 88.3282C166.514 87.1118 169.28 87.4792 172 96" stroke="#1F1F1F" stroke-width="4" stroke-linecap="round"/>
<path d="M172 120C158.5 104.5 161.229 95.186 161.851 94.1714C162.5 93 164.262 90.6141 166 97.9997" stroke="#1F1F1F" stroke-width="4" stroke-linecap="round"/>
<path d="M250.5 158C256 157.5 258.026 155.616 257.014 149.761" stroke="#1F1F1F" stroke-width="4" stroke-linecap="round"/>
<path d="M234.974 63.5L236.974 68.5" stroke="#1F1F1F" stroke-width="4" stroke-linecap="round"/>
<path d="M208.974 68.5L210.974 73.5" stroke="#1F1F1F" stroke-width="4" stroke-linecap="round"/>
<path d="M194 155.5L179.867 127.721C179.653 127.301 179.177 127.091 178.713 127.175C173.503 128.12 164.26 125.72 163.5 109" stroke="#1F1F1F" stroke-width="4" stroke-linecap="round"/>
</svg>
