<svg width="330" height="356" viewBox="0 0 330 356" fill="none" xmlns="http://www.w3.org/2000/svg">
<path fill-rule="evenodd" clip-rule="evenodd" d="M301.32 173.639C306.919 159.071 310 143.162 310 126.5C310 56.636 255.826 0 189 0C122.174 0 68 56.636 68 126.5C68 196.364 122.174 253 189 253C231.328 253 268.579 230.278 290.204 195.864C296.083 201.083 308.171 209.012 328.073 206.532C329.982 206.294 330.347 203.703 328.686 202.734C319.245 197.226 306.503 187.015 301.32 173.639Z" fill="#D0FF4C"/>
<path d="M188.5 43.5C190.333 40.3333 195.2 34.4 200 36" stroke="#1F1F1F" stroke-width="4" stroke-linecap="round" stroke-linejoin="round"/>
<path d="M169.5 59C166.833 58.5 160.9 57.5 158.5 57.5" stroke="#1F1F1F" stroke-width="4" stroke-linecap="round" stroke-linejoin="round"/>
<path d="M167 67L169 70" stroke="#1F1F1F" stroke-width="6" stroke-linecap="round" stroke-linejoin="round"/>
<path d="M202 57L203 62" stroke="#1F1F1F" stroke-width="6" stroke-linecap="round" stroke-linejoin="round"/>
<path d="M191.412 74.5613C189.329 77.9539 187.563 78.939 183.588 79.4387" stroke="#1F1F1F" stroke-width="4" stroke-linecap="round" stroke-linejoin="round"/>
<path d="M2 269L170 269" stroke="#1F1F1F" stroke-width="4" stroke-linecap="round" stroke-linejoin="round"/>
<path d="M322 269L282 269" stroke="#1F1F1F" stroke-width="4" stroke-linecap="round" stroke-linejoin="round"/>
<path d="M156.5 225.5L201 224" stroke="#1F1F1F" stroke-width="4" stroke-linecap="round" stroke-linejoin="round"/>
<path d="M196 219C200.272 219.986 216.236 238.56 246.193 304.609C246.797 305.941 248.594 306.233 249.55 305.127L285.5 263.5H271L239.056 212.784C229.265 197.24 210.33 190.106 192.716 195.325L182 198.5" stroke="#1F1F1F" stroke-width="4" stroke-linecap="round" stroke-linejoin="round"/>
<path d="M87 235C98.8333 247.833 134.5 272.5 182.5 268.5" stroke="#1F1F1F" stroke-width="4" stroke-linejoin="round"/>
<path d="M91 219L81.5 259.5C84.6667 260.167 91 262.8 91 268" stroke="#1F1F1F" stroke-width="4" stroke-linecap="round" stroke-linejoin="round"/>
<path d="M65 146L41.5 251.5C34.6667 251.833 19.6 255.5 14 267.5" stroke="#1F1F1F" stroke-width="4" stroke-linecap="round" stroke-linejoin="round"/>
<path d="M185.5 261.5L173 341.5C181.333 345 201.7 353.1 222.5 353.5L216.49 344.485C215.212 342.568 214.718 340.235 215.109 337.965L227.5 266" stroke="#1F1F1F" stroke-width="4" stroke-linejoin="round"/>
<path d="M262.5 172C238.5 202 200.042 195.5 189.5 184.5C182.312 177 175.1 165.6 177.5 126" stroke="#1F1F1F" stroke-width="4" stroke-linecap="round" stroke-linejoin="round"/>
<path fill-rule="evenodd" clip-rule="evenodd" d="M222.063 74.6618C227.697 72.0736 233.077 78.6869 229.397 83.6758L218.396 98.5871C217.156 100.268 216.474 102.289 216.449 104.372C216.292 117.049 216.141 137.991 216.497 144.389C216.75 148.946 219.594 151.365 221.948 152.424C222.955 152.877 223.692 153.912 223.5 155C223.308 156.088 222.266 156.818 221.229 156.436C217.7 155.136 212.895 151.674 212.503 144.611C212.138 138.041 212.294 116.924 212.449 104.323C212.485 101.396 213.443 98.5636 215.178 96.2125L226.178 81.3012C227.404 79.6382 225.611 77.4338 223.733 78.2965L209.441 84.8632C203.473 87.6053 196.839 88.5601 190.34 87.6123L151.711 81.9791C151.677 81.974 151.642 81.968 151.608 81.9612C150.638 81.7673 149.265 81.8014 148.235 82.3369C147.399 82.7719 146.5 83.671 146.5 86C146.5 86.5823 146.826 87.3038 148.021 88.1473C149.214 88.9897 150.981 89.7267 153.105 90.3249C156.622 91.3156 160.717 91.8175 163.784 91.958C164.731 92.0015 165.5 92.7692 165.5 93.718C167.906 92.2646 170.512 91.3568 172.777 90.8604C173.856 90.6239 174.86 91.4044 175 92.5C175.14 93.5956 174.364 94.5909 173.289 94.8456C170.605 95.4816 167.487 96.7834 165.172 98.9292C163.744 100.253 162.642 101.878 162.092 103.866C161 107.812 163 111.5 162.562 112.564L161 115.5L160.5 116.5C159.223 113.881 157.996 111.176 157.76 108.271C157.599 106.292 157.775 104.469 158.236 102.8C159.015 99.987 160.569 97.7424 162.453 95.9958C162.489 95.9622 162.525 95.9287 162.562 95.8955C159.393 95.6866 155.487 95.1517 152.02 94.1751C149.706 93.5233 147.442 92.6354 145.714 91.4152C143.987 90.1962 142.5 88.4177 142.5 86C142.5 82.3291 144.101 79.9782 146.39 78.7881C148.46 77.7116 150.805 77.7321 152.337 78.028L190.917 83.6542C196.651 84.4905 202.505 83.648 207.771 81.2285L222.063 74.6618Z" fill="#1F1F1F"/>
<path d="M174.499 102C167.333 104.667 159 114 162 122C165.174 130.465 174.5 124.5 172 118" stroke="#1F1F1F" stroke-width="4" stroke-linecap="round" stroke-linejoin="round"/>
<path d="M185 125C182.667 126 176.8 127.1 172 123.5" stroke="#1F1F1F" stroke-width="4" stroke-linecap="round" stroke-linejoin="round"/>
<path d="M56.2422 184.011C48.6152 162.552 46.975 139.408 51.4991 117.08C56.0233 94.753 66.5394 74.0925 81.91 57.3315C97.2806 40.5706 116.921 28.3468 138.708 21.9802C160.494 15.6137 183.6 15.3462 205.527 21.2067C227.454 27.0672 247.37 38.8331 263.121 55.2336C278.873 71.6342 289.86 92.0457 294.896 114.262C299.932 136.479 298.824 159.655 291.692 181.285C284.559 202.915 271.675 222.176 254.432 236.986" stroke="#1F1F1F" stroke-width="4" stroke-linecap="round" stroke-linejoin="round"/>
<path d="M39 259.5C35 259.667 26.3 261.8 23.5 269" stroke="#1F1F1F" stroke-width="4" stroke-linecap="round" stroke-linejoin="round"/>
</svg>
