<svg width="369" height="368" viewBox="0 0 369 368" fill="none" xmlns="http://www.w3.org/2000/svg">
<path fill-rule="evenodd" clip-rule="evenodd" d="M207.923 42.4005C201.699 29.0147 182.895 28.4003 175.81 41.3512L80.3317 215.884C73.9345 227.578 82.024 241.926 95.3408 242.506L96.4941 242.556C95.3615 252.645 91.212 263.552 81.5514 273.054C80.0249 274.556 81.2989 277.097 83.3065 276.353C95.4337 271.856 112.852 261.925 128.863 243.964L275.623 250.35C289.11 250.937 298.419 237.019 292.727 224.778L207.923 42.4005Z" fill="#FFDD2A"/>
<path d="M261.895 103.417C262.2 108.408 261.439 133.147 273.328 134.779C311.215 139.98 294.132 155.55 252.842 152.059" stroke="#272727" stroke-width="4" stroke-linecap="round"/>
<path d="M254.184 74.2195C254.09 72.5673 254.818 70.9751 256.131 69.9671L258.425 68.205C261.104 66.1476 265.01 67.2836 266.168 70.4569L276.823 99.6633C277.956 102.77 275.816 106.101 272.519 106.361L261.198 107.255C258.404 107.476 255.974 105.356 255.813 102.557L254.184 74.2195Z" fill="#FFDD2A"/>
<path d="M269.704 95.9989C265.496 93.3011 257.878 87.4929 261.075 85.8416C264.273 84.1903 270.217 88.5161 272.789 90.8854" stroke="#272727" stroke-width="4" stroke-linecap="round"/>
<path d="M261.837 85.0823C260.928 84.4268 259.932 82.632 261.083 81.1599C262.343 79.5479 265.293 79.3637 274.394 85.7599" stroke="#272727" stroke-width="4" stroke-linecap="round"/>
<path d="M265.65 80.3679C265.047 79.0856 264.853 76.4909 268.346 75.9966C270.675 75.667 292.515 76.6524 285.34 108.975C284.303 113.646 344.09 120.58 349.997 151.639C354.424 174.912 327.98 199.068 268.956 202.671" stroke="#272727" stroke-width="4" stroke-linecap="round"/>
<path d="M284.336 200.23C286.949 207.514 289.407 214.739 291.722 221.589C294.084 228.579 289.056 235.897 281.681 236.145C271.407 236.491 257.559 236.922 246.079 237.154M266.816 151.206C254.561 120.691 238.45 82.6744 226.175 54.0515C218.7 36.6234 194.579 35.3773 185.248 51.886L138.56 134.489M139.577 238.539C131.996 238.693 122.155 238.926 112.644 239.162C97.9891 239.527 88.4265 223.877 95.4596 211.015L107.791 188.464" stroke="#272727" stroke-width="4" stroke-linejoin="round"/>
<path d="M140.264 228.059L138.966 333.539C138.918 337.377 136.874 340.912 133.572 342.868L123.79 348.662C122.915 349.18 123.281 350.521 124.298 350.522L172.398 350.575C177.368 350.58 181.402 346.555 181.408 341.584L181.517 240.33C181.519 239.226 182.415 238.331 183.52 238.333L205.204 238.356C206.032 238.357 206.774 238.868 207.07 239.641L244.981 338.642C246.103 341.573 249.617 342.758 252.285 341.104L298.272 312.594C299.052 312.11 298.823 310.918 297.918 310.759L284.079 308.322C281.836 307.927 279.926 306.466 278.958 304.406L245.24 232.672" stroke="#272727" stroke-width="4" stroke-linecap="round"/>
<path d="M194.713 112.606C198.76 116.428 209.153 121.645 218.35 111.929" stroke="#272727" stroke-width="4" stroke-linecap="round"/>
<path d="M195.93 85.6958L197.548 92.5063" stroke="#272727" stroke-width="4" stroke-linecap="round"/>
<path d="M216.639 87.6222L215.97 91.2641C215.851 91.909 216.375 92.4915 217.029 92.4419L225.531 91.7973" stroke="#272727" stroke-width="4" stroke-linecap="round"/>
<path d="M34 71.5C34.2687 69.0806 36.7408 66.3503 44.4796 67.0761C54.1531 67.9834 77.5306 71.6128 86.398 104.275C94.6037 134.5 96.5 146 145 133" stroke="#272727" stroke-width="4" stroke-linecap="round"/>
<path d="M48.0001 73.0381C39.1844 72.042 21 71.3129 17.4205 73.0387C13.2881 75.0311 12.6736 78.0117 13.5 81" stroke="#272727" stroke-width="4" stroke-linecap="round"/>
<path d="M40 80.2588C30.3333 78.4686 11 77.2155 11 86.5246C11 88.0164 12.2889 91 17.4444 91" stroke="#272727" stroke-width="4" stroke-linecap="round"/>
<path d="M117 187.29C94.2262 190.004 83.3272 184.758 75.519 174.629C65.7588 161.967 61.6921 99.5628 40.545 99.5628C19.3978 99.5628 14.9268 96.5467 17.7709 92.3273C20.2108 88.7074 34.0379 86.9011 40.545 88.7102" stroke="#272727" stroke-width="4" stroke-linecap="round"/>
</svg>
