<svg width="241" height="251" fill="none" xmlns="http://www.w3.org/2000/svg"><path fill-rule="evenodd" clip-rule="evenodd" d="M147.929 25.608c0-14.546-16.36-23.085-28.293-14.767l-84.31 58.767c-10.722 7.473-10.157 23.52 1.064 30.22l1.796 1.073c-2.265 7.984-7.761 17.484-19.051 22.535-1.955.875-1.808 3.709.332 3.772 10.604.313 26.533-2.006 43.346-11.6l57.887 34.567c11.998 7.165 27.229-1.48 27.229-15.454V25.608Z" fill="#FFDD2A"/><path d="m2 199.703 32.996 20.466a5 5 0 0 0 6.916-1.665L84.92 147.26a2 2 0 0 1 2.875-.594l10.472 7.48a9.999 9.999 0 0 1 4.185 8.343l-1.59 77.128c-.104 5.042 3.955 9.186 8.998 9.186h33.302l-7.355-4.359a11 11 0 0 1-5.392-9.463v-60.973a3 3 0 0 1 3.522-2.954l4.123.727c8.573 1.513 16.433-5.081 16.433-13.787v-24.386" stroke="#1F1F1F" stroke-width="4" stroke-linecap="round"/><path d="M126.165 129.831c13.219 8.026 39.186 10.858 73.65-32.576m-15.58-12.747c-6.61 4.25-47.211 35.88-74.121 5.665" stroke="#1F1F1F" stroke-width="4" stroke-linecap="round"/><path d="M155.436 100.088V31.115c0-13.019-14.719-20.587-25.308-13.014l-97.591 69.8c-9.328 6.672-8.815 20.702.975 26.674l23.972 14.622a3 3 0 0 1 .983 4.148l-37.836 60.706a12.001 12.001 0 0 1-10.184 5.652H2m43.434 49.1h104.809M133.719 44.85v6.61m10.859-4.721v4.721" stroke="#1F1F1F" stroke-width="4" stroke-linecap="round"/><path d="M125.221 58.07c1.102 3.304 5.288 9.253 13.219 6.61m59.131 31.456c3.736 1.77 11.679 2.713 13.566-7.668" stroke="#1F1F1F" stroke-width="4" stroke-linecap="round"/><path d="M211.137 89.057c-1.573 3.736-3.185 10.617 2.95 8.258 7.668-2.95 7.078-18.285-2.36-14.746" stroke="#1F1F1F" stroke-width="4" stroke-linecap="round"/><path d="M211.727 82.57c1.966-.59 4.719-2.36 8.258 2.949 2.927 4.39 9.438-8.258-4.719-10.618" stroke="#1F1F1F" stroke-width="4" stroke-linecap="round"/><path d="M214.087 74.902c7.668-1.18 13.862-.197 17.695 2.359 5.309 3.539 9.438 0 5.899-4.13-8.848-7.209-21.155-5.68-30.347-2.896-8.736 2.646-15.504 9.21-23.099 14.273v0" stroke="#1F1F1F" stroke-width="4" stroke-linecap="round"/></svg>