<svg width="330" height="356" fill="none" xmlns="http://www.w3.org/2000/svg"><path fill-rule="evenodd" clip-rule="evenodd" d="M301.32 173.639c5.599-14.568 8.68-30.477 8.68-47.139C310 56.636 255.826 0 189 0S68 56.636 68 126.5 122.174 253 189 253c42.328 0 79.579-22.722 101.204-57.136 5.879 5.219 17.967 13.148 37.869 10.668 1.909-.238 2.274-2.829.613-3.798-9.441-5.508-22.183-15.719-27.366-29.095Z" fill="#D0FF4C"/><path d="M188.5 43.5c1.833-3.167 6.7-9.1 11.5-7.5m-30.5 23c-2.667-.5-8.6-1.5-11-1.5" stroke="#1F1F1F" stroke-width="4" stroke-linecap="round" stroke-linejoin="round"/><path d="m167 67 2 3m33-13 1 5" stroke="#1F1F1F" stroke-width="6" stroke-linecap="round" stroke-linejoin="round"/><path d="M191.412 74.561c-2.083 3.393-3.849 4.378-7.824 4.878M2 269h168m152 0h-40m-125.5-43.5L201 224m-5-5c4.272.986 20.236 19.56 50.193 85.609.604 1.332 2.401 1.624 3.357.518L285.5 263.5H271l-31.944-50.716c-9.791-15.544-28.726-22.678-46.34-17.459L182 198.5" stroke="#1F1F1F" stroke-width="4" stroke-linecap="round" stroke-linejoin="round"/><path d="M87 235c11.833 12.833 47.5 37.5 95.5 33.5" stroke="#1F1F1F" stroke-width="4" stroke-linejoin="round"/><path d="m91 219-9.5 40.5c3.167.667 9.5 3.3 9.5 8.5M65 146 41.5 251.5c-6.833.333-21.9 4-27.5 16" stroke="#1F1F1F" stroke-width="4" stroke-linecap="round" stroke-linejoin="round"/><path d="m185.5 261.5-12.5 80c8.333 3.5 28.7 11.6 49.5 12l-6.01-9.015a8.999 8.999 0 0 1-1.381-6.52L227.5 266" stroke="#1F1F1F" stroke-width="4" stroke-linejoin="round"/><path d="M262.5 172c-24 30-62.458 23.5-73 12.5-7.188-7.5-14.4-18.9-12-58.5" stroke="#1F1F1F" stroke-width="4" stroke-linecap="round" stroke-linejoin="round"/><path fill-rule="evenodd" clip-rule="evenodd" d="M222.063 74.662c5.634-2.588 11.014 4.025 7.334 9.014l-11.001 14.911a9.944 9.944 0 0 0-1.947 5.785c-.157 12.677-.308 33.619.048 40.017.253 4.557 3.097 6.976 5.451 8.035 1.007.453 1.744 1.488 1.552 2.576-.192 1.088-1.234 1.818-2.271 1.436-3.529-1.3-8.334-4.762-8.726-11.825-.365-6.57-.209-27.687-.054-40.288.036-2.927.994-5.76 2.729-8.11l11-14.912c1.226-1.663-.567-3.867-2.445-3.005l-14.292 6.567a33.998 33.998 0 0 1-19.101 2.75l-38.629-5.634a2.175 2.175 0 0 1-.103-.018c-.97-.194-2.343-.16-3.373.376-.836.435-1.735 1.334-1.735 3.663 0 .582.326 1.304 1.521 2.147 1.193.843 2.96 1.58 5.084 2.178 3.517.99 7.612 1.492 10.679 1.633.947.043 1.716.811 1.716 1.76 2.406-1.453 5.012-2.361 7.277-2.858 1.079-.236 2.083.544 2.223 1.64.14 1.096-.636 2.09-1.711 2.346-2.684.636-5.802 1.937-8.117 4.083-1.428 1.324-2.53 2.949-3.08 4.937-1.092 3.946.908 7.634.47 8.698L161 115.5l-.5 1c-1.277-2.619-2.504-5.324-2.74-8.229-.161-1.979.015-3.802.476-5.471.779-2.813 2.333-5.058 4.217-6.804l.109-.1c-3.169-.21-7.075-.744-10.542-1.72-2.314-.653-4.578-1.54-6.306-2.76-1.727-1.22-3.214-2.998-3.214-5.416 0-3.67 1.601-6.022 3.89-7.212 2.07-1.076 4.415-1.056 5.947-.76l38.58 5.626a30 30 0 0 0 16.854-2.425l14.292-6.567Z" fill="#1F1F1F"/><path d="M174.499 102C167.333 104.667 159 114 162 122c3.174 8.465 12.5 2.5 10-4" stroke="#1F1F1F" stroke-width="4" stroke-linecap="round" stroke-linejoin="round"/><path d="M185 125c-2.333 1-8.2 2.1-13-1.5" stroke="#1F1F1F" stroke-width="4" stroke-linecap="round" stroke-linejoin="round"/><path d="M56.242 184.011A125.477 125.477 0 0 1 51.5 117.08a125.182 125.182 0 0 1 30.41-59.748 124.426 124.426 0 0 1 56.798-35.352 124.02 124.02 0 0 1 66.819-.773 124.395 124.395 0 0 1 57.594 34.027 125.15 125.15 0 0 1 31.775 59.028 125.48 125.48 0 0 1-3.204 67.023 125.038 125.038 0 0 1-37.26 55.701M39 259.5c-4 .167-12.7 2.3-15.5 9.5" stroke="#1F1F1F" stroke-width="4" stroke-linecap="round" stroke-linejoin="round"/></svg>