<svg width="369" height="368" fill="none" xmlns="http://www.w3.org/2000/svg"><path fill-rule="evenodd" clip-rule="evenodd" d="M207.923 42.4c-6.224-13.385-25.028-14-32.113-1.049L80.332 215.884c-6.397 11.694 1.692 26.042 15.009 26.622l1.153.05c-1.132 10.089-5.282 20.996-14.943 30.498-1.526 1.502-.252 4.043 1.755 3.299 12.128-4.497 29.546-14.428 45.557-32.389l146.76 6.386c13.487.587 22.796-13.331 17.104-25.572L207.923 42.401Z" fill="#FFDD2A"/><path d="M261.895 103.417c.305 4.991-.456 29.73 11.433 31.362 37.887 5.201 20.804 20.771-20.486 17.28" stroke="#272727" stroke-width="4" stroke-linecap="round"/><path d="M254.184 74.22a5.002 5.002 0 0 1 1.947-4.253l2.294-1.762c2.679-2.057 6.585-.921 7.743 2.252l10.655 29.206c1.133 3.107-1.007 6.438-4.304 6.698l-11.321.894a5 5 0 0 1-5.385-4.698l-1.629-28.338Z" fill="#FFDD2A"/><path d="M269.704 95.999c-4.208-2.698-11.826-8.506-8.629-10.157 3.198-1.652 9.142 2.674 11.714 5.043" stroke="#272727" stroke-width="4" stroke-linecap="round"/><path d="M261.837 85.082c-.909-.655-1.905-2.45-.754-3.922 1.26-1.612 4.21-1.796 13.311 4.6" stroke="#272727" stroke-width="4" stroke-linecap="round"/><path d="M265.65 80.368c-.603-1.282-.797-3.877 2.696-4.371 2.329-.33 24.169.655 16.994 32.978-1.037 4.671 58.75 11.605 64.657 42.664 4.427 23.273-22.017 47.429-81.041 51.032" stroke="#272727" stroke-width="4" stroke-linecap="round"/><path d="M284.336 200.23c2.613 7.284 5.071 14.509 7.386 21.359 2.362 6.99-2.666 14.308-10.041 14.556-10.274.346-24.122.777-35.602 1.009m20.737-85.948c-12.255-30.515-28.366-68.532-40.641-97.154-7.475-17.429-31.596-18.675-40.927-2.166l-46.688 82.603m1.017 104.05c-7.581.154-17.422.387-26.933.623-14.655.365-24.218-15.285-17.184-28.147l12.331-22.551" stroke="#272727" stroke-width="4" stroke-linejoin="round"/><path d="m140.264 228.059-1.298 105.48a11.002 11.002 0 0 1-5.394 9.329l-9.782 5.794c-.875.518-.509 1.859.508 1.86l48.1.053a9.002 9.002 0 0 0 9.01-8.991l.109-101.254a2 2 0 0 1 2.003-1.997l21.684.023a2 2 0 0 1 1.866 1.285l37.911 99.001c1.122 2.931 4.636 4.116 7.304 2.462l45.987-28.51c.78-.484.551-1.676-.354-1.835l-13.839-2.437a7 7 0 0 1-5.121-3.916l-33.718-71.734m-50.527-120.066c4.047 3.822 14.44 9.039 23.637-.677m-22.42-26.233 1.618 6.81m19.091-4.884-.669 3.642a1 1 0 0 0 1.059 1.178l8.502-.645M34 71.5c.269-2.42 2.74-5.15 10.48-4.424 9.673.907 33.05 4.537 41.918 37.199C94.604 134.5 96.5 146 145 133" stroke="#272727" stroke-width="4" stroke-linecap="round"/><path d="M48 73.038c-8.816-.996-27-1.725-30.58 0-4.132 1.993-4.746 4.974-3.92 7.962" stroke="#272727" stroke-width="4" stroke-linecap="round"/><path d="M40 80.259c-9.667-1.79-29-3.043-29 6.266C11 88.016 12.289 91 17.444 91M117 187.29c-22.774 2.714-33.673-2.532-41.481-12.661-9.76-12.662-13.827-75.066-34.974-75.066s-25.618-3.016-22.774-7.236c2.44-3.62 16.267-5.426 22.774-3.617" stroke="#272727" stroke-width="4" stroke-linecap="round"/></svg>